<svg xmlns="http://www.w3.org/2000/svg" viewBox="0 0 624.5 172.99"><g id="圖層_2" data-name="圖層 2"><g id="圖層_1-2" data-name="圖層 1"><g id="圖層_2-2" data-name="圖層 2"><g id="圖層_1-2-2" data-name="圖層 1-2"><path d="M162.73,54.43h15c15.85,0,26.33,7.61,26.33,25.7s-10.4,26.27-25.63,26.27H162.79Zm14.19,41.91c8.36,0,14.32-3.85,14.32-16.21s-6-15.78-14.32-15.78h-1.69V96.41Z" style="fill:#595959"/><path d="M213.63,54.43h14.85c15.85,0,26.31,7.61,26.31,25.7s-10.38,26.27-25.61,26.27H213.59Zm14.19,41.91c8.37,0,14.33-3.85,14.33-16.21s-6-15.78-14.33-15.78h-1.68V96.41Z" style="fill:#595959"/><path d="M277.28,99.91l7-8.6a21,21,0,0,0,12.63,5.18c4.63,0,6.79-1.73,6.79-4.51s-2.86-4-7.33-5.87l-6.62-2.79a15.21,15.21,0,0,1-10.55-14.26c0-8.71,7.79-15.6,18.84-15.6A24.25,24.25,0,0,1,315,60.29l-6.22,7.81a17,17,0,0,0-10.7-4c-3.82,0-6.22,1.54-6.22,4.35s3.3,4,7.79,5.8l6.5,2.59c6.42,2.6,10.27,7,10.27,14.25,0,8.65-7.28,16.26-19.83,16.26A29,29,0,0,1,277.28,99.91Z" style="fill:#595959"/><path d="M323.51,91.67V76.34h-5.38v-9.2l6.08-.48,1.39-10.39H336V66.66h9.43v9.76h-9.36v15c0,4.4,2.1,6.15,5,6.15a12.9,12.9,0,0,0,3.64-.7l1.95,8.93a28.87,28.87,0,0,1-9,1.4C327.56,107.36,323.51,101.08,323.51,91.67Z" style="fill:#595959"/><path d="M349.18,86.57c0-13.2,9.35-20.78,19.52-20.78s19.41,7.79,19.41,20.78-9.38,20.79-19.41,20.79S349.18,99.7,349.18,86.57Zm26.16,0c0-6.65-2.07-10.83-6.7-10.83s-6.76,4.18-6.76,10.83S364,97.3,368.64,97.3s6.73-4.18,6.73-10.73Z" style="fill:#595959"/><path d="M395.93,66.66H406l.83,7h.28a13.62,13.62,0,0,1,11.33-7.79,11.28,11.28,0,0,1,4.81.82l-2.1,10.69a16.09,16.09,0,0,0-4.31-.62c-2.94,0-6.51,1.89-8.61,7.12v22.71H395.93Z" style="fill:#595959"/><path d="M427.77,121l2.23-9.4a14.34,14.34,0,0,0,2.6.48,6.34,6.34,0,0,0,6.62-4.75l.57-2L424.56,66.72H437.1l5.2,16.47c1.2,3.64,2,7.34,3.07,11.23h.36c.78-3.77,1.66-7.46,2.61-11.23L453,66.72h12L451.38,106.5c-3.93,10.22-8.2,15.23-17.59,15.23A19.13,19.13,0,0,1,427.77,121Z" style="fill:#595959"/><path d="M487.81,54.43h12.55V74.18h17.06V54.43H530v52H517.58V85H500.44V106.4H487.81Z" style="fill:#595959"/><path d="M540.47,91.22V66.66h12.45V89.77c0,5.58,1.39,7.07,4.6,7.07a7.52,7.52,0,0,0,6.62-4.06v-26h12.54V106.4H566.62l-.91-5.46h-.28A15.3,15.3,0,0,1,553,107.36C544.18,107.36,540.47,101.22,540.47,91.22Z" style="fill:#595959"/><path d="M597.48,102.14h-.28l-1,4.26h-9.65V50.65h12.37V64.06L598.65,70a15.58,15.58,0,0,1,10.26-4.26c9.49,0,15.59,8,15.59,20.11,0,13.76-8.15,21.58-16.72,21.58A14.09,14.09,0,0,1,597.48,102.14Zm14.16-16.06c0-7-2-10.4-6.41-10.4A8.4,8.4,0,0,0,598.88,79V94.62a8.64,8.64,0,0,0,5.93,2.32c3.82.23,6.88-2.92,6.88-10.86Z" style="fill:#595959"/><path d="M27.27,100.08c.67,1.55,1.64,4,2.6,6.94,2.35,7.28,1.43,8,3.41,12a20.83,20.83,0,0,0,8.59,9.25l.11.06a20.27,20.27,0,0,0,8.11,2.1c6.08.51,11.7.6,11.71.6S53,117,40.48,107.62C36.17,104.37,33.57,101.72,27.27,100.08Z" style="fill:#d9d9d9"/><path d="M27.27,100.08s19.4-4,30.44,5S61.8,131,61.8,131,46.54,107.27,27.27,100.08Z" style="fill:#d9d9d9"/><path d="M107.88,137,72.73,158.08a2.14,2.14,0,0,1-2.93-.74l-4.15-6.89a2.11,2.11,0,0,1,.72-2.88l37-22.24a2.11,2.11,0,0,1,2.88.72l3.43,1.13C109.73,130.77,109.87,135.74,107.88,137Z" style="fill:#d9d9d9"/><circle cx="99.16" cy="26.64" r="10.17" style="fill:#d9d9d9"/><path d="M109.7,58.68V130a3.51,3.51,0,0,1-3.5,3.52h-5.26A3.47,3.47,0,0,1,97.47,130h0V58.68a3.47,3.47,0,0,1,3.47-3.47h5.29a3.48,3.48,0,0,1,3.47,3.47Z" style="fill:#d9d9d9"/><path d="M44.32,7.23,98,19.25a3.33,3.33,0,0,1,2.53,4v0l-1.25,5.58a3.31,3.31,0,0,1-4,2.51h0L42,19.39a3.76,3.76,0,0,1-2.85-4.49l1.15-5.12a3.3,3.3,0,0,1,3.95-2.51h.05Z" style="fill:#d9d9d9"/><path d="M51.73,15.38V47.91a4.66,4.66,0,0,1-4.65,4.67H44.13A4.63,4.63,0,0,1,39.5,48h0V12.45a5.14,5.14,0,0,1,4.63-4.63h0A7.6,7.6,0,0,1,51.73,15.38Z" style="fill:#d9d9d9"/><path d="M44.44,40.41l63,14.1a3.31,3.31,0,0,1,2.5,4l-1.26,5.63a3.28,3.28,0,0,1-3.91,2.5h0l-62.45-14a3.78,3.78,0,0,1-2.87-4.52h0l1.16-5.17a3.29,3.29,0,0,1,3.93-2.49Z" style="fill:#d9d9d9"/><path d="M81.1,74.33,13.3,58.78A7,7,0,0,0,4.59,63.5a.29.29,0,0,1,0,.09A6.51,6.51,0,0,0,4.3,66v81.49A8.13,8.13,0,0,0,8.19,154l34,18.23a8.17,8.17,0,0,0,7.26-.17l33.84-20.24a8.21,8.21,0,0,0,3.58-6.32v-64A7.74,7.74,0,0,0,81.1,74.33ZM76.23,137.8a6.09,6.09,0,0,1-2.66,4.69l-25.16,15a6,6,0,0,1-5.39.12L17.73,144.12a6,6,0,0,1-2.88-4.83V78.73a5.23,5.23,0,0,1,4.91-5.53,5.63,5.63,0,0,1,1.78.2L71.94,85a5.73,5.73,0,0,1,4.25,5.33Z" style="fill:#d9d9d9"/><path d="M23,92.92c.66,1.55,1.63,4,2.6,6.94,2.35,7.28,1.42,8,3.4,12a21,21,0,0,0,8.6,9.25l.11.06a20.18,20.18,0,0,0,8.1,2.1c6.09.51,11.71.6,11.71.6s-8.78-14.12-21.31-23.42C31.89,97.21,29.29,94.56,23,92.92Z" style="fill:#a3bb6d"/><path d="M23,92.92s19.39-4,30.43,5,4.09,25.89,4.09,25.89S42.25,100.11,23,92.92Z" style="fill:#84aa42"/><path d="M103.6,129.78,68.42,150.91a2.13,2.13,0,0,1-2.92-.71h0l-4.12-6.85a2.1,2.1,0,0,1,.71-2.88h0l37-22.23a2.1,2.1,0,0,1,2.88.71h0l3.43,1.13C105.42,123.61,105.58,128.58,103.6,129.78Z" style="fill:#494949"/><circle cx="94.88" cy="19.48" r="10.17" style="fill:#494949"/><path d="M105.41,51.53v71.33a3.51,3.51,0,0,1-3.5,3.52H96.65a3.47,3.47,0,0,1-3.47-3.47h0V51.53a3.47,3.47,0,0,1,3.47-3.47h5.29a3.48,3.48,0,0,1,3.47,3.47Z" style="fill:#494949"/><path d="M40,.07l53.67,12a3.34,3.34,0,0,1,2.53,4h0L95,21.66a3.31,3.31,0,0,1-4,2.51h0L37.79,12.24a3.75,3.75,0,0,1-2.85-4.49h0L36.1,2.58A3.32,3.32,0,0,1,40,.07Z" style="fill:#494949"/><path d="M47.45,8.21V40.75a4.66,4.66,0,0,1-4.66,4.66h-3a4.63,4.63,0,0,1-4.63-4.63h0V5.24A5.13,5.13,0,0,1,39.84.61h0A7.61,7.61,0,0,1,47.45,8.21Z" style="fill:#494949"/><path d="M40.15,33.25l63,14.1a3.31,3.31,0,0,1,2.51,3.95v.05L104.39,57a3.29,3.29,0,0,1-3.93,2.49L38,45.44a3.8,3.8,0,0,1-2.87-4.53l1.15-5.15a3.29,3.29,0,0,1,3.93-2.49Z" style="fill:#494949"/><path d="M76.82,67.17,9,51.61a7.08,7.08,0,0,0-9,7.18v81.48a8.14,8.14,0,0,0,3.88,6.49l34,18.22a8.22,8.22,0,0,0,7.27-.16L79,144.57a8.22,8.22,0,0,0,3.59-6.32V74.34A7.76,7.76,0,0,0,76.82,67.17Zm-4.88,63.46a6.06,6.06,0,0,1-2.66,4.7l-25.15,15a6.07,6.07,0,0,1-5.4.12L13.49,137a6,6,0,0,1-2.89-4.82V71.57A5.24,5.24,0,0,1,15.53,66a5.6,5.6,0,0,1,1.77.2L67.73,77.79A5.74,5.74,0,0,1,72,83.13Z" style="fill:#494949"/></g></g></g></g></svg>